<svg id="Layer_1" data-name="Layer 1" xmlns="http://www.w3.org/2000/svg" xmlns:xlink="http://www.w3.org/1999/xlink" viewBox="0 0 1924 2238"><defs><style>.cls-1{fill:none;}.cls-2{clip-path:url(#clip-path);}.cls-3{opacity:0.2;}.cls-4{fill:#ccc;}</style><clipPath id="clip-path"><rect class="cls-1" x="2.65" y="0.12" width="1918.7" height="2237.75"/></clipPath></defs><title>Artboard 1 copy</title><g class="cls-2"><g class="cls-3"><path class="cls-4" d="M1560.19,327.73a28.29,28.29,0,0,0-29.66-14.84,28.68,28.68,0,0,0-23.63,32.88,29.27,29.27,0,0,0,3,8.4l1.55,3a169.91,169.91,0,0,1,12.84,25.09,184.12,184.12,0,0,1,13.78,68c23.27-35.91,40.35-79.11,24.72-116.84l-.11-.25Z"/><path class="cls-4" d="M5.65,815.1-110.11,749c-22.68-14.39-73.42-38-108.4-27.53-15.54,4.65-27.05,15.94-35.18,34.5l0,0c-7.47,17.57-8.37,33.06-1.4,46.17,17.2,32.33,74.68,49.38,95.38,53.21l129.91,36.54c-.8-12.69,1.57-25.94,7.13-39.35C-16,836.49-6.41,823.87,5.65,815.1Z"/><path class="cls-4" d="M191.36,769.42c-7.59-11.21-31.93-40.47-54-42.73-5.51-.55-13.21.13-23.57,10.42s-11.08,18-10.55,23.53c2.14,22.19,32,47.15,42.26,54.13l115.22,80.09c3.16-3.46,6.49-6.83,9.94-10.05Z"/><path class="cls-4" d="M467.71,441.76c4.62-26.46,7-82.37-16-110.68-10.24-12.58-25.07-18.9-45.32-19.3h0c-19.09-.18-33.74,4.92-43.18,16.37-23.3,28.27-17.05,87.89-12.67,108.48l16,134c11.42-5.59,24.56-8.47,39.08-8.47,17.37.05,32.7,4.09,45.42,11.86Z"/><path class="cls-4" d="M1491,226.32c-29.07-29.07-75.51-30-117.57-22.27A180.76,180.76,0,0,1,1450,265.49l.75.82a31.83,31.83,0,0,0,7.15,6.62,28.48,28.48,0,0,0,36.61-42.8Z"/><path class="cls-4" d="M405.67,613.71c-14.68,0-20.58,4.9-24.1,9.18-14.18,17.2-10.73,56-8.4,68.16L398,829.15c4.69-.21,9.42-.24,14.14-.07l25.53-137.67c2.55-13.29,6-51.19-8-68.4C426.19,618.72,420.27,613.76,405.67,613.71Z"/><path class="cls-4" d="M84,931.7l137.1,29.91c1.59-4.41,3.38-8.8,5.34-13.1L109,872.25c-11.3-7.45-45-25.17-66.25-18.8C37.49,855,30.64,858.61,25,872.09s-3.35,20.89-.75,25.78C34.73,917.55,71.85,929.19,84,931.7Z"/><path class="cls-4" d="M1910.94,855.28a57.2,57.2,0,1,0-57.2,57.17A57.27,57.27,0,0,0,1910.94,855.28Z"/><path class="cls-4" d="M1740.68,828v-.28l-.26-6a28.3,28.3,0,0,0-21.72-25.06A28.69,28.69,0,0,0,1684.28,818a29.65,29.65,0,0,0-.4,8.92l.28,3.35a170.13,170.13,0,0,1,2.27,28.1,184.05,184.05,0,0,1-13.3,68.11C1708.37,902.16,1740.68,868.78,1740.68,828Z"/><path class="cls-4" d="M1715.3,701.51c-15.73-38-58.3-56.58-100.1-65.57a180.72,180.72,0,0,1,47.2,86l.38,1a31.81,31.81,0,0,0,4.07,8.85,28.48,28.48,0,0,0,50.2-25.54Z"/><path class="cls-4" d="M1535.06,918.52c5.63,4.62,8.31,11.43,12.58,23.09,0,0,0,0,0,0l74-7.61c2.36-7.79,4.55-18.48,6.31-27.92l-95.08,10.65C1533.62,917.34,1534.35,917.92,1535.06,918.52Z"/><path class="cls-4" d="M675.79,722.3c-22.19,2.13-47.15,32-54.13,42.26L541.57,879.78c3.46,3.16,6.83,6.49,10,9.94L667,810.42c11.21-7.59,40.47-31.92,42.73-54,.55-5.52-.13-13.21-10.42-23.57S681.3,721.76,675.79,722.3Z"/><path class="cls-4" d="M972.65,858c26.22-5.86,78.78-25,96.12-57.18,7.7-14.28,7.86-30.4.48-49.27v0c-7.14-17.7-17.46-29.3-31.66-33.63-35-10.71-87.72,17.88-105.06,29.81l-117.7,66c9.54,8.41,17.23,19.45,22.79,32.87,6.61,16.06,8.73,31.77,6.42,46.5Z"/><path class="cls-4" d="M588.08,941.89c2,4.25,3.83,8.62,5.48,13l137-29.1c13.26-2.73,49.6-14,60.14-33.55,2.62-4.88,4.93-12.25-.61-25.76s-12.41-17.14-17.7-18.75c-21.32-6.52-55.8,11.5-66.19,18.33Z"/><path class="cls-4" d="M1124.66,1025.37c.18-19.09-4.92-33.75-16.38-43.19-28.26-23.29-87.89-17-108.47-12.66l-134,16c5.6,11.41,8.48,24.56,8.48,39.08,0,1.31-.19,2.53-.24,3.81h0v0h0c.05,1.28.23,2.5.24,3.81,0,14.52-2.88,27.67-8.48,39.08l134,16c20.58,4.38,80.21,10.63,108.47-12.66,11.46-9.44,16.56-24.1,16.38-43.19v0c0-1.07-.24-2-.3-3s.28-1.92.3-3Z"/><path class="cls-4" d="M1831.63,687A57.19,57.19,0,1,0,1756.92,656,57.25,57.25,0,0,0,1831.63,687Z"/><path class="cls-4" d="M1528.08,1021.9c0-28.49-8.44-49.28-25.8-63.59-49.84-41.08-155.17-19.47-156.24-19.24l-187.58,22.29c11.7,17.07,17.77,38.33,17.77,62.74,0,.74,0,1.49,0,2.23s-.15,1.34-.18,2h0v0h0c0,.7.17,1.33.18,2s0,1.49,0,2.23c0,24.41-6.07,45.68-17.77,62.74L1346,1117.71c1.07.23,106.4,21.84,156.24-19.24,17.36-14.31,25.8-35.1,25.8-63.59l0-2.89c0-1.28-.3-2.35-.36-3.6s.34-2.32.36-3.6Z"/><path class="cls-4" d="M1592.92,87.47a57.2,57.2,0,1,0,0,80.88A57.28,57.28,0,0,0,1592.92,87.47Z"/><path class="cls-4" d="M1487.54,669c1.3,11.21,2.31,20.08-1.64,27.36-.45.86-.92,1.7-1.41,2.53l95.74-27.28c-6-8.66-12.82-18.1-18.41-24.55Z"/><path class="cls-4" d="M2116.22,1027.77c0-61.63-47.64-103-118.55-103s-118.57,41.4-118.57,103c0,.21,0,.41,0,.62s0,.41,0,.62c0,61.63,47.64,103,118.57,103s118.55-41.41,118.55-103c0-.21,0-.41,0-.62S2116.22,1028,2116.22,1027.77Z"/><path class="cls-4" d="M948.84,482.43l1.57,1.59c18.68,19.47,29.51,40.75,32.36,63.56L1130.66,433c1.65-1.17,88.27-61.92,95.16-128.95,2.56-25-6.51-47.85-27.72-69.94l-2-2.06c-20.14-20.15-40.81-28.88-63.21-26.73-64.29,6.21-123.49,96-124.08,96.87L891.92,450.63C912.25,454.42,931.58,465.17,948.84,482.43Z"/><path class="cls-4" d="M1153.15,161.48l46.95-57.71c-3.84-7.17-9.85-16.28-15.28-24.2l-59.69,74.76c.93-.11,1.86-.21,2.79-.29,7.24-.71,14,2.21,25.21,7.43Z"/><path class="cls-4" d="M1354.78,250.41c-8.86-5.7-18.77-11.81-26.41-15.63l-60.23,48.7c5.49,9.85,9.82,17.66,8.95,25.9-.09,1-.19,1.92-.32,2.88Z"/><path class="cls-4" d="M1076,679.49c17.33,11.28,31.08,28.61,40.42,51.16.28.68.56,1.38.83,2.07,9.82,25.14,11.68,48.95,5.59,71.11l180.46-49.24c2-.45,105.25-23.42,137.26-82.72,11.92-22.09,12.3-46.69,1.15-75.22l-1.07-2.68c-10.9-26.32-26.65-42.3-48.17-48.88-61.77-18.87-150.81,41.4-151.7,42Z"/><path class="cls-4" d="M320,90.38,342.3,278c17.06-11.69,38.32-17.76,62.73-17.76l2.23,0c27,.55,49.69,7.94,67.83,22L498.66,96.7c.34-2,18.64-106.19-23.89-158.47-15.84-19.46-38.43-29.23-69-29.85l-2.89,0c-28.49,0-49.28,8.44-63.59,25.8C298.16-16,319.78,89.32,320,90.38Z"/><path class="cls-4" d="M917.9,11.23c8.84,7,15.83,12.56,18.18,20.5.29.93.56,1.86.8,2.79l48.41-87c-10.37-1.88-21.86-3.74-30.39-4.34Z"/><path class="cls-4" d="M52.8-4.12C30.71-16,6.11-16.42-22.42-5.28L-25.1-4.2C-51.42,6.7-67.39,22.45-74,44c-18.87,61.76,41.4,150.81,42,151.7L60.42,360.44C71.7,343.11,89,329.36,111.58,320l2.07-.84c25.14-9.81,48.95-11.67,71.11-5.58L135.52,133.14C135.07,131.17,112.1,27.89,52.8-4.12Z"/><path class="cls-4" d="M699,317.23l2.05.87c24.72,10.83,42.87,26.36,54.23,46.34L848.11,202c1.08-1.71,57.86-91,38.57-155.55-7.19-24-24.32-41.72-52.37-54l-2.65-1.14c-26.33-10.9-48.76-11.06-68.63-.5-57,30.33-77.36,135.91-77.57,137L634.28,309.63C654.52,305.36,676.49,307.89,699,317.23Z"/><path class="cls-4" d="M1488.59,448.76,1404.84,495c.9.25,1.8.51,2.69.8,7,2.11,12,7.38,20.45,16.52a0,0,0,0,0,0,0L1493.45,477A286.15,286.15,0,0,0,1488.59,448.76Z"/><path class="cls-4" d="M181.79,367.66c-14.28-7.7-30.4-7.86-49.27-.48h0c-17.7,7.14-29.3,17.46-33.63,31.66-10.71,35,17.88,87.72,29.81,105.06l66,117.7c8.41-9.54,19.46-17.23,32.87-22.79,16.07-6.6,31.77-8.73,46.5-6.42L239,463.78C233.11,437.56,213.92,385,181.79,367.66Z"/><path class="cls-4" d="M-53.54,504.73c-16.15-1.65-31.1,4.37-45.7,18.41l0,0c-13.63,13.37-20.39,27.34-19,42.11,3.51,36.46,50.09,74.2,67.75,85.67l106,83.46c4.11-12,11.37-23.36,21.64-33.62,12.32-12.26,26-20.24,40.5-23.73L36.07,571.65C20.62,549.67-17.22,508.45-53.54,504.73Z"/><path class="cls-4" d="M273.21,645.78c-4.88-2.63-12.25-4.95-25.76.6s-17.13,12.41-18.75,17.7c-6.52,21.32,11.5,55.8,18.33,66.19l75.79,118.08c4.25-2,8.62-3.83,13-5.48l-29.1-137C304,692.65,292.75,656.31,273.21,645.78Z"/><path class="cls-4" d="M785.49,568.58,702,674.62c12,4.12,23.36,11.38,33.62,21.65,12.26,12.31,20.23,26,23.73,40.5l105.4-81.63c22-15.45,63.2-53.3,66.92-89.61,1.65-16.15-4.37-31.1-18.41-45.71l0,0c-13.37-13.62-27.34-20.38-42.11-19C834.7,504.35,797,550.93,785.49,568.58Z"/><path class="cls-4" d="M680.5,365.38l0,0c-17.57-7.47-33.06-8.37-46.17-1.4-32.33,17.2-49.38,74.68-53.21,95.37L544.56,589.25c12.69-.81,25.94,1.57,39.35,7.13,16,6.68,28.65,16.28,37.42,28.33L687.47,509c14.4-22.69,38-73.42,27.53-108.4C710.34,385,699.06,373.5,680.5,365.38Z"/><path class="cls-4" d="M504.73,703.09l-29.91,137.1c4.42,1.59,8.8,3.38,13.1,5.34l76.26-117.42c7.45-11.31,25.18-45,18.8-66.25-1.59-5.3-5.16-12.15-18.64-17.78s-20.89-3.35-25.78-.75C518.89,653.8,507.24,690.91,504.73,703.09Z"/><path class="cls-4" d="M1162.32-22.58a29.73,29.73,0,0,0,6,6.59l2.57,2.17a170.23,170.23,0,0,1,21.46,18.26A184.32,184.32,0,0,1,1231.15,62c7.75-42.07,7-88.53-21.88-117.4l-.2-.2-4.42-4A28.28,28.28,0,0,0,1171.57-62,28.68,28.68,0,0,0,1162.32-22.58Z"/><path class="cls-4" d="M1381,150.51l7.57-6.08c.63-.43,56.2-39.11,75.83-84.43-38.79-16-73.09-50.28-88-89.85-42.51,12.38-85.12,74.27-85.54,75.78l-6.05,7.52c-8.25,65.73-37.39,124.07-38.65,126.59l-9,18L1255.2,189C1261.58,185.83,1317.61,158.59,1381,150.51Z"/><path class="cls-4" d="M1599.45,458.28,1591,462.9c-32.77,57.57-82,100.32-84.14,102.16l-15.26,13.2,20.16-1.46c7.1-.49,69.3-4.22,131,12.59l9.32-2.71c.75-.16,66.89-14.63,102.37-49-29.71-29.62-48.29-74.41-46.94-116.68C1663.47,416.16,1600.42,457,1599.45,458.28Z"/><path class="cls-4" d="M1911.48,518.31c55.62-23,100.72-81.33,74.77-144-23.59-56.94-83.44-77-149-49.82s-93.7,83.62-70.11,140.57C1791.45,523.66,1848.09,544.56,1911.48,518.31Z"/><path class="cls-4" d="M1602.13-18c42.57-42.57,61.93-113.69,14-161.64-43.58-43.58-106.54-39.17-156.69,11s-54.56,113.12-11,156.7C1493.29,32.87,1553.62,30.5,1602.13-18Z"/><path class="cls-4" d="M1624.9,337.29a57.19,57.19,0,1,0,30.94-74.74A57.24,57.24,0,0,0,1624.9,337.29Z"/><path class="cls-4" d="M1530.53,1743.89a28.29,28.29,0,0,0,29.66-14.84l2.53-5.44.11-.25c15.63-37.72-1.45-80.93-24.72-116.84a184.12,184.12,0,0,1-13.78,68,169.91,169.91,0,0,1-12.84,25.09l-1.55,3a29.27,29.27,0,0,0-3,8.4A28.67,28.67,0,0,0,1530.53,1743.89Z"/><path class="cls-4" d="M-253.69,1300.86c8.13,18.55,19.64,29.84,35.18,34.49,35,10.46,85.72-13.14,108.4-27.53L5.65,1241.69c-12.06-8.78-21.66-21.39-28.34-37.43-5.56-13.41-7.93-26.66-7.13-39.35l-129.91,36.54c-20.7,3.83-78.18,20.88-95.38,53.21-7,13.11-6.07,28.6,1.4,46.17Z"/><path class="cls-4" d="M72.34,1058,210,1032.5c0-1.36,0-2.72,0-4.09h0v0h0c0-1.37-.07-2.73,0-4.09L72.34,998.75c-13.29-2.55-51.19-6-68.4,8-4,3.28-8.47,9-9.07,21.64h0s0,0,0,0v0h0c.6,12.67,5.05,18.36,9.07,21.64C21.15,1064.07,59.05,1060.59,72.34,1058Z"/><path class="cls-4" d="M137.35,1330.09c22.08-2.26,46.42-31.52,54-42.73L270.65,1172c-3.45-3.22-6.78-6.59-9.94-10L145.49,1242c-10.29,7-40.12,31.94-42.26,54.13-.53,5.51.18,13.15,10.55,23.53S131.84,1330.64,137.35,1330.09Z"/><path class="cls-4" d="M350.45,1620.16c-4.38,20.59-10.63,80.22,12.67,108.48,9.44,11.45,24.09,16.55,43.18,16.37h0c20.25-.4,35.08-6.72,45.32-19.3,23.06-28.31,20.67-84.21,16-110.68l-16.8-132.25c-12.72,7.77-28.05,11.81-45.42,11.86-14.52,0-27.66-2.88-39.08-8.47Z"/><path class="cls-4" d="M1457.86,1783.85a31.83,31.83,0,0,0-7.15,6.62l-.75.82a180.76,180.76,0,0,1-76.54,61.44c42.06,7.69,88.5,6.8,117.57-22.27l3.48-3.8a28.48,28.48,0,0,0-36.61-42.81Z"/><path class="cls-4" d="M405.67,1443.07c14.6,0,20.52-5,24-9.3,14-17.21,10.54-55.1,8-68.4l-25.53-137.66c-4.72.16-9.45.13-14.14-.08l-24.84,138.1c-2.33,12.21-5.78,51,8.4,68.16C385.09,1438.17,391,1443.07,405.67,1443.07Z"/><path class="cls-4" d="M543.55,1029.25c0-.29,0-.57,0-.86s0-.57,0-.86a135.73,135.73,0,1,0-271.46,0c0,.29,0,.57.05.86s-.05.57-.05.86a135.73,135.73,0,0,0,271.46,0Z"/><path class="cls-4" d="M42.79,1203.33c21.27,6.38,55-11.35,66.25-18.8l117.42-76.26c-2-4.3-3.75-8.68-5.34-13.1L84,1125.08c-12.17,2.51-49.29,14.16-59.76,33.84-2.6,4.88-4.87,12.21.75,25.77S37.49,1201.74,42.79,1203.33Z"/><path class="cls-4" d="M1910.94,1201.5a57.2,57.2,0,1,0-57.2,57.21A57.25,57.25,0,0,0,1910.94,1201.5Z"/><path class="cls-4" d="M1740.42,1235.1l.26-6v-.28c0-40.83-32.31-74.21-67.55-98.48a184,184,0,0,1,13.3,68.1,170.13,170.13,0,0,1-2.27,28.1l-.28,3.35a29.65,29.65,0,0,0,.4,8.92,28.69,28.69,0,0,0,34.42,21.34A28.3,28.3,0,0,0,1740.42,1235.1Z"/><path class="cls-4" d="M1840.81,1092.57c-8.9-19.67-13.18-41.94-13.16-64.18s4.26-44.5,13.16-64.18c-38.81-21.31-112.7-7.68-114.07-6.9l-9.6,1c-52.31,40.65-114.17,61.3-116.83,62.19l-19.15,6.35,4.55,1.51-4.55,1.51,19.15,6.35c2.66.89,64.52,21.54,116.83,62.19l9.6,1C1728.11,1100.25,1802,1113.88,1840.81,1092.57Z"/><path class="cls-4" d="M1715.3,1355.27l1.75-4.84a28.48,28.48,0,0,0-50.2-25.54,32,32,0,0,0-4.07,8.85l-.38,1a180.72,180.72,0,0,1-47.2,86C1657,1411.85,1699.57,1393.25,1715.3,1355.27Z"/><path class="cls-4" d="M1621.65,1122.76l-74-7.6h0c-4.27,11.66-7,18.47-12.58,23.09-.71.6-1.44,1.18-2.18,1.77l95.08,10.66C1626.2,1141.24,1624,1130.55,1621.65,1122.76Z"/><path class="cls-4" d="M675.79,1334.48c5.51.54,13.15-.17,23.53-10.55s11-18,10.42-23.56c-2.26-22.09-31.52-46.42-42.73-54l-115.39-79.3c-3.22,3.45-6.59,6.78-10,10l80.09,115.21C628.64,1302.51,653.6,1332.35,675.79,1334.48Z"/><path class="cls-4" d="M1037.59,1338.86c14.2-4.34,24.52-15.93,31.66-33.64v0c7.38-18.87,7.22-35-.48-49.27-17.34-32.13-69.9-51.32-96.12-57.18L844,1163.65c2.31,14.73.19,30.44-6.42,46.5-5.56,13.42-13.25,24.46-22.79,32.87l117.7,66C949.87,1321,1002.57,1349.56,1037.59,1338.86Z"/><path class="cls-4" d="M772.35,1209c5.29-1.61,12.08-5.19,17.7-18.75s3.23-20.88.61-25.76c-10.54-19.54-46.88-30.82-60.14-33.55l-137-29.1c-1.65,4.42-3.49,8.79-5.48,13l118.08,75.8C716.55,1197.51,751,1215.53,772.35,1209Z"/><path class="cls-4" d="M1787.86,1475.51a57.19,57.19,0,1,0-30.94-74.74A57.27,57.27,0,0,0,1787.86,1475.51Z"/><path class="cls-4" d="M1512,1969.31a57.19,57.19,0,1,0,0-80.89A57.28,57.28,0,0,0,1512,1969.31Z"/><path class="cls-4" d="M1561.82,1409.69c5.59-6.45,12.41-15.89,18.41-24.55l-95.74-27.28c.49.83,1,1.67,1.41,2.53,3.95,7.28,2.94,16.16,1.64,27.36Z"/><path class="cls-4" d="M1225.82,1752.71c-6.89-67-93.51-127.79-95.16-129L982.77,1509.2c-2.85,22.81-13.68,44.09-32.36,63.56l-1.57,1.59c-17.26,17.26-36.59,28-56.92,31.8l116.87,148.41c.59.91,59.79,90.66,124.08,96.87,22.4,2.15,43.07-6.58,63.21-26.73l2-2.06C1219.31,1800.55,1228.38,1777.67,1225.82,1752.71Z"/><path class="cls-4" d="M1153.13,1895.31c-11.25,5.22-18,8.14-25.21,7.43-.93-.08-1.86-.18-2.79-.29l59.69,74.77c5.43-7.93,11.44-17,15.28-24.21l-46.95-57.71Z"/><path class="cls-4" d="M1101.91,2183.64l4.67-2.19a28.48,28.48,0,0,0-17.44-53.55,31.54,31.54,0,0,0-9.14,3.38l-1,.47a180.76,180.76,0,0,1-94.22,27.47C1020.69,2182.42,1063.93,2199.37,1101.91,2183.64Z"/><path class="cls-4" d="M1328.37,1822c7.64-3.82,17.55-9.93,26.41-15.63l-78-61.85c.13,1,.23,1.92.32,2.88.87,8.24-3.46,16-8.95,25.9Z"/><path class="cls-4" d="M1392.46,1511.69c21.52-6.58,37.27-22.56,48.17-48.88l1.07-2.68c11.15-28.52,10.77-53.13-1.15-75.22-32-59.3-135.29-82.27-137.26-82.71L1122.83,1253c6.09,22.16,4.23,46-5.59,71.11-.27.69-.55,1.39-.83,2.07-9.34,22.55-23.09,39.88-40.42,51.16l164.77,92.39C1241.65,1470.29,1330.69,1530.56,1392.46,1511.69Z"/><path class="cls-4" d="M498.66,1960.08l-23.57-185.57c-18.14,14.11-40.85,21.5-67.83,22l-2.23,0c-24.41,0-45.67-6.07-62.73-17.76L320,1966.4c-.22,1.06-21.84,106.39,19.24,156.23,14.31,17.37,35.1,25.8,63.59,25.8l2.89,0c30.62-.62,53.21-10.39,69-29.85C517.3,2066.28,499,1962.07,498.66,1960.08Z"/><path class="cls-4" d="M414.18,2220.69l-6.37-19.18-6.35,19.15c-.89,2.67-21.54,64.53-62.19,116.84l-1,9.59c-.78,1.37-14.41,75.26,6.9,114.08,38.54-17.44,87-17.41,125.77-1.3,18.17-45.92,6.23-112.57,6.09-113.32l-1.06-9.65C436.8,2286.33,416.44,2227.45,414.18,2220.69Z"/><path class="cls-4" d="M936.08,2025.05c-2.35,7.94-9.34,13.5-18.18,20.5l37,68c8.53-.6,20-2.46,30.39-4.34l-48.41-87C936.64,2023.19,936.37,2024.12,936.08,2025.05Z"/><path class="cls-4" d="M822.71,1032.05c0-1.42-.24-2.41-.33-3.66.09-1.25.33-2.24.33-3.65,0-14.68-4.9-20.59-9.17-24.1-17.2-14.18-55.95-10.73-68.16-8.4l-138.1,24.84c.17,3.75.13,7.53.06,11.31s.11,7.56-.06,11.31l138.1,24.84c12.21,2.33,51,5.78,68.16-8.4C817.81,1052.63,822.71,1046.72,822.71,1032.05Z"/><path class="cls-4" d="M113.65,1737.6l-2.07-.84c-22.55-9.34-39.88-23.09-51.16-40.42L-32,1861.11c-.62.89-60.89,89.94-42,151.7,6.59,21.52,22.56,37.27,48.88,48.18l2.68,1.07c28.53,11.14,53.13,10.77,75.22-1.15,59.3-32,82.27-135.3,82.72-137.27l49.24-180.46C162.6,1749.27,138.79,1747.41,113.65,1737.6Z"/><path class="cls-4" d="M77.32,2106.25c-7.28,3.95-16.15,2.94-27.35,1.64L28,2182.17c6.45,5.6,15.89,12.41,24.55,18.42l27.29-95.74C79,2105.33,78.18,2105.8,77.32,2106.25Z"/><path class="cls-4" d="M112.82,2287.2a31.67,31.67,0,0,0-8.85-4.07l-1-.38a180.72,180.72,0,0,1-86-47.2c9,41.8,27.59,84.37,65.57,100.1l4.84,1.76a28.48,28.48,0,0,0,25.54-50.21Z"/><path class="cls-4" d="M799,2236a184.08,184.08,0,0,1-57.83,38.34A169.41,169.41,0,0,1,714.3,2283l-3.2,1a29.5,29.5,0,0,0-8.09,3.79,28.68,28.68,0,0,0-6.54,40,28.28,28.28,0,0,0,31.46,10.48l5.64-2.05.25-.1C771.55,2320.48,790,2277.85,799,2236Z"/><path class="cls-4" d="M738.82,2111.48c-.83-.43-1.65-.88-2.47-1.34l26.54,91.91c8-5.23,17.08-11.35,23.38-16.51L765,2114.26s0,0,0,0C752.56,2114.78,745.24,2114.9,738.82,2111.48Z"/><path class="cls-4" d="M763,2066c19.87,10.56,42.3,10.4,68.63-.5l2.65-1.14c28.05-12.28,45.18-30,52.37-54,19.29-64.57-37.49-153.84-38.57-155.55l-92.79-162.42c-11.36,20-29.51,35.5-54.23,46.33l-2.05.87c-22.55,9.34-44.52,11.87-64.76,7.6L685.46,1929C685.67,1930.05,706,2035.63,763,2066Z"/><path class="cls-4" d="M1428,1544.48c-8.4,9.13-13.49,14.4-20.45,16.51-.89.29-1.79.55-2.69.8l83.75,46.23a286.15,286.15,0,0,0,4.86-28.21L1428,1544.46S1428,1544.48,1428,1544.48Z"/><path class="cls-4" d="M132.49,1689.6h0c18.87,7.37,35,7.21,49.27-.49,32.13-17.33,51.32-69.9,57.18-96.12l35.09-128.61c-14.73,2.32-30.43.19-46.5-6.42-13.41-5.56-24.46-13.25-32.87-22.79l-66,117.7c-11.93,17.34-40.52,70-29.81,105.07C103.19,1672.14,114.79,1682.46,132.49,1689.6Z"/><path class="cls-4" d="M36.07,1485.13l81.63-105.4c-14.49-3.49-28.18-11.47-40.5-23.73-10.27-10.26-17.53-21.59-21.64-33.62l-106,83.46c-17.66,11.47-64.24,49.21-67.75,85.67-1.43,14.78,5.33,28.74,19,42.11l0,0c14.6,14,29.55,20.06,45.7,18.41C-17.22,1548.33,20.62,1507.11,36.07,1485.13Z"/><path class="cls-4" d="M306.76,1350.87l29.1-137c-4.42-1.65-8.79-3.49-13-5.48L247,1326.52c-6.83,10.38-24.85,44.86-18.33,66.18,1.62,5.29,5.19,12.08,18.75,17.7s20.88,3.23,25.76.61C292.75,1400.47,304,1364.13,306.76,1350.87Z"/><path class="cls-4" d="M871.16,1556c14.77,1.42,28.74-5.34,42.11-19l0,0c14-14.61,20.06-29.56,18.41-45.7-3.72-36.32-44.94-74.17-66.92-89.62L759.38,1320c-3.5,14.49-11.47,28.19-23.73,40.5-10.26,10.27-21.6,17.53-33.62,21.65l83.46,106C797,1505.85,834.7,1552.43,871.16,1556Z"/><path class="cls-4" d="M634.31,1692.82c13.11,7,28.6,6.07,46.17-1.4l0,0c18.56-8.12,29.84-19.63,34.5-35.18,10.46-35-13.13-85.71-27.53-108.4l-66.14-115.75c-8.77,12-21.39,21.65-37.42,28.34-13.41,5.55-26.66,7.93-39.35,7.13l36.54,129.91C584.93,1618.14,602,1675.62,634.31,1692.82Z"/><path class="cls-4" d="M322.56,2168s0,0,0,0c-11.66-4.26-18.47-6.95-23.09-12.57-.6-.71-1.18-1.44-1.77-2.18L287,2248.31c9.44-1.76,20.13-3.95,27.92-6.31Z"/><path class="cls-4" d="M538.56,1413.45c4.89,2.6,12.22,4.87,25.78-.75s17-12.47,18.64-17.78c6.38-21.26-11.35-54.94-18.8-66.25l-76.26-117.42c-4.3,2-8.68,3.75-13.1,5.34l29.91,137.1C507.24,1365.87,518.89,1403,538.56,1413.45Z"/><path class="cls-4" d="M528,2247.68l-11.43-98.89c-.58.77-1.18,1.52-1.8,2.27-5.22,6.43-13.8,8.9-24.65,12l8.15,77C506.39,2242.77,517.71,2245.45,528,2247.68Z"/><path class="cls-4" d="M976,2220.12l-4.67-8.52c-55.51-31.74-96.85-78.35-101.53-83.72l-13.22-15.28,1.46,20.11c.19,2.81,4.79,67.87-12.75,131.75l2.73,9.26c-.2,1.56,15.48,75,50,102.74,28.93-30.84,73.74-49.38,115.7-49.32C1013,2277.76,976.41,2220.75,976,2220.12Z"/><path class="cls-4" d="M1192.38,2052.34a169.4,169.4,0,0,1-21.46,18.26l-2.57,2.17a29.54,29.54,0,0,0-6,6.6,28.68,28.68,0,0,0,9.25,39.42,28.29,28.29,0,0,0,33.08-2.36l4.42-4,.2-.2c28.87-28.87,29.63-75.32,21.88-117.4A184.32,184.32,0,0,1,1192.38,2052.34Z"/><path class="cls-4" d="M1388.61,1912.35l-7.57-6.08c-63.43-8.08-119.46-35.32-125.84-38.49l-18.06-9.06,9,18c1.26,2.51,30.4,60.86,38.65,126.58l6.05,7.52c.42,1.52,43,63.4,85.54,75.78,14.93-39.57,49.23-73.84,88-89.84C1444.81,1951.46,1389.24,1912.78,1388.61,1912.35Z"/><path class="cls-4" d="M1642.73,1467.39c-61.69,16.81-123.89,13.08-131,12.59l-20.16-1.46,15.26,13.2c2.12,1.84,51.37,44.59,84.14,102.16l8.47,4.63c1,1.24,64,42.11,108,37.27-1.35-42.27,17.23-87.06,46.94-116.68-35.48-34.37-101.62-48.84-102.37-49Z"/><path class="cls-4" d="M1268.09,2132.36a57.19,57.19,0,1,0,80.87,0A57.27,57.27,0,0,0,1268.09,2132.36Z"/><path class="cls-4" d="M1911.48,1538.47c-63.39-26.25-120-5.35-144.3,53.24-23.59,57,4.59,113.43,70.11,140.57s125.37,7.12,149-49.82C2012.2,1619.8,1967.1,1561.51,1911.48,1538.47Z"/><path class="cls-4" d="M1448.44,2068.76c-43.58,43.58-39.17,106.55,11,156.7s113.11,54.55,156.69,11c48-47.95,28.59-119.07-14-161.64C1553.62,2026.28,1493.29,2023.91,1448.44,2068.76Z"/><path class="cls-4" d="M1699.62,1688.55a57.19,57.19,0,1,0,31,74.71A57.24,57.24,0,0,0,1699.62,1688.55Z"/></g></g></svg>