<svg id="Layer_1" data-name="Layer 1" xmlns="http://www.w3.org/2000/svg" viewBox="0 0 390.06 249.91">
  <defs>
    <style>
      .cls-1{fill:#036}.cls-2{fill:#fc3}
    </style>
  </defs>
  <path id="cls-1" class="cls-1" d="M40 233.15h3.2v13.52h11.88v2.83H40zM63.37 233.15h3.19v16.35h-3.19zM76.26 233.15h3.37L90.56 245v-11.85h3.06v16.35H90.7l-11.38-12.23v12.23h-3.06zM103.12 233.15h14.67v2.74h-11.47v3.81h9.87v2.74h-9.87v4.32h11.74v2.74h-14.94zM126.25 233.15h3.38L140.56 245v-11.85h3.06v16.35h-2.93l-11.38-12.23v12.23h-3.06zM165.85 238.12c-.52-1.46-1.85-2.72-5.74-2.72-2.16 0-4.34.54-4.34 2 0 .69.4 1.44 3.67 1.84l3.87.59c3.66.56 5.82 2 5.82 4.72 0 3.87-3.69 5.31-8 5.31-7 0-8.73-3.47-9.11-4.7l3.08-1c.58 1.19 1.8 2.92 6.12 2.92 2.61 0 4.77-.85 4.77-2.27 0-1.06-1.22-1.75-3.56-2l-3.91-.54c-3.78-.52-5.9-2.16-5.9-4.66 0-4.91 6.37-4.91 7.63-4.91 7 0 8.26 3.27 8.66 4.39zM209.36 249.91a10.21 10.21 0 01-5.85-1.94l-.77.5a12.1 12.1 0 01-6 1.44c-4.07 0-6.84-1.8-6.84-5.09 0-2.6 2.27-4.31 4.52-5l.7-.2-.38-.52a4.16 4.16 0 01-.86-2.54c0-2.54 2.34-3.83 4.7-3.83s5 1.13 5 3.9c0 2.47-1.89 3.68-3.49 4.27l-.25.09.21.2a40.52 40.52 0 003.1 3l.52.43.2-.16a14.34 14.34 0 003-3.55l.18-.3 2.5 1.31-.18.29a18.75 18.75 0 01-2.84 3.6l-.54.49a6 6 0 003.36.9h.58v2.75zm-12.58-2.66a10.69 10.69 0 003.74-.78l.72-.32-.72-.61a32.72 32.72 0 01-3.17-3.08l-.61-.67-.63.22c-1.26.41-3.08 1.15-3.08 2.75-.03 1.93 2.2 2.49 3.75 2.49zm1.87-8.43c1.08-.36 2.18-1.08 2.18-2.32a2.11 2.11 0 00-4.2.07 3.46 3.46 0 001.07 2l.41.39zM231.84 233.15h7.87c5.18 0 9.31 2.18 9.31 8.08 0 5.57-3.77 8.27-9.17 8.27h-8zm6.43 13.61c5.45 0 7.56-1.66 7.56-5.49 0-4-2.2-5.38-7.56-5.38H235v10.87zM257.46 233.15h14.67v2.74h-11.47v3.81h9.87v2.74h-9.87v4.32h11.74v2.74h-14.94zM297.78 243.68c-.32 1.82-1.62 6.23-9.13 6.23-5.18 0-9.25-2.88-9.25-8.84 0-4.77 3-8.33 9.5-8.33 7.31 0 8.39 4.75 8.63 5.63h-3.19c-.18-.56-1.44-2.88-5.27-2.88-4.52 0-6.41 2.54-6.41 5.94 0 3.75 2.72 5.73 6.24 5.73 3.73 0 5.37-2.22 5.69-3.48zM314.91 232.74c7.19 0 9.73 4.23 9.73 8.71 0 3.4-2 8.46-9.73 8.46s-9.75-5.06-9.75-8.46c0-4.45 2.55-8.71 9.75-8.71zm6.54 8.53c0-3.94-2.81-5.78-6.54-5.78s-6.55 1.84-6.55 5.78c0 4.64 3.49 5.89 6.55 5.89s6.54-1.25 6.54-5.89zM333.08 233.15h9.83c3.87 0 6.66.88 6.66 4.88a4.63 4.63 0 01-4.56 4.82l5 6.65h-3.93l-4.75-6.43h-5.06v6.43h-3.2zm9.36 7.27c2.61 0 3.94-.39 3.94-2.32s-1.33-2.3-3.94-2.3h-6.16v4.62zM15.27 185.38H0v-5.73h37.21v5.73H21.94v28.43h-6.67zM61 179.65h7.62l16.58 34.16h-7L74.61 206H54.93l-3.62 7.85h-7.09zm11 20.58L64.84 185l-7.14 15.23zM101.39 179.65h19c5.78 0 15.27 0 15.27 10.48s-9.49 10.43-15.27 10.43h-12.33v13.25h-6.67zm20.49 15.18c3.8 0 7.14-.33 7.14-4.75s-3.34-4.7-7.14-4.7h-13.82v9.45zM152.28 179.65h30.63v5.73H159v7.94h20.62v5.74H159v9h24.52v5.73h-31.24zM227.17 190c-1.08-3.06-3.86-5.69-12-5.69-4.51 0-9.07 1.13-9.07 4.28 0 1.45.84 3 7.66 3.85l8.08 1.22c7.65 1.18 12.17 4.13 12.17 9.87 0 8.08-7.71 11.08-16.82 11.08-14.66 0-18.23-7.23-19-9.82l6.44-2c1.22 2.49 3.75 6.11 12.77 6.11 5.45 0 10-1.78 10-4.74 0-2.21-2.53-3.67-7.42-4.28l-8.17-1.13c-7.9-1.08-12.31-4.51-12.31-9.72 0-10.24 13.29-10.24 15.92-10.24 14.71 0 17.25 6.81 18.09 9.16zM263.63 185.38h-15.27v-5.73h37.21v5.73H270.3v28.43h-6.67zM302.29 179.65h20.53c8.09 0 13.91 1.83 13.91 10.2 0 6.29-4.51 9.77-9.54 10.05l10.48 13.91h-8.22l-9.91-13.44H309v13.44h-6.67zm19.55 15.18c5.45 0 8.22-.8 8.22-4.84s-2.77-4.79-8.22-4.79H309v9.63zM366.71 200.14L350 179.65h8.18l11.84 14.47 11.79-14.47h8.22l-16.68 20.49v13.67h-6.67z"/>
  <path id="cls-2" class="cls-2" d="M300.06 91.9a2.57 2.57 0 00-2.7-1.35 2.62 2.62 0 00-2.16 3 2.65 2.65 0 00.28.76l.14.27a15.32 15.32 0 011.17 2.29 16.87 16.87 0 011.26 6.21c2.12-3.28 3.68-7.22 2.25-10.66zM158.27 136.36l-10.56-6c-2.07-1.31-6.7-3.46-9.89-2.51a5.14 5.14 0 00-3.21 3.15 4.78 4.78 0 00-.13 4.21c1.57 3 6.81 4.51 8.7 4.86l11.82 3.29a8.16 8.16 0 01.65-3.59 7.88 7.88 0 012.62-3.41zM164.35 153.11c-1.21-.24-4.67-.55-6.24.73a2.43 2.43 0 00-.83 2h19.63v-.37zM171 136.33l10.51 7.3c.29-.31.59-.62.91-.92l-7.23-10.52c-.7-1-2.92-3.69-4.93-3.9a3.27 3.27 0 00-3.11 3.1c.21 2.02 2.93 4.3 3.85 4.94zM200.41 102.3c.43-2.41.64-7.51-1.46-10.09a5.08 5.08 0 00-4.13-1.76 4.76 4.76 0 00-3.94 1.5c-2.12 2.58-1.55 8-1.15 9.89l1.45 12.23a8 8 0 013.57-.78 7.93 7.93 0 014.14 1.09zM293.75 82.65c-2.65-2.65-6.89-2.73-10.72-2a16.54 16.54 0 017 5.6l.07.08a2.84 2.84 0 00.65.6 2.6 2.6 0 003.34-3.9zM141.58 150.37c-2.42-.42-7.51-.64-10.1 1.46a5.06 5.06 0 00-1.74 4h22.83a7.86 7.86 0 011.07-3.91zM194.75 118a2.52 2.52 0 00-2.19.83c-1.3 1.57-1 5.11-.77 6.22l2.27 12.6h1.29l2.32-12.56c.24-1.21.56-4.67-.72-6.24a2.52 2.52 0 00-2.2-.85zM195 143.35a12.38 12.38 0 00-12.38 12.38v.08h24.76v-.08A12.38 12.38 0 00195 143.35zM110.1 147.54c-.18 0-9.68-1.7-14.45 2.18a7.73 7.73 0 00-2.7 6.09H125a10.15 10.15 0 012-6.12zM161.66 139.85a3.26 3.26 0 00-1.69 4.06c.95 1.79 4.34 2.85 5.45 3.08l12.5 2.73c.15-.4.31-.8.49-1.2l-10.71-7c-1.03-.63-4.11-2.25-6.04-1.67zM321.62 140a5.22 5.22 0 105.22-5.22 5.22 5.22 0 00-5.22 5.22zM314.52 134.67a2.53 2.53 0 00-3.17 2.76v.31a15.69 15.69 0 01.21 2.56 16.83 16.83 0 01-1.21 6.21c3.21-2.21 6.16-5.26 6.16-9v-.54a2.57 2.57 0 00-1.99-2.3zM314.38 149.42a39.54 39.54 0 01-10.66 5.67l-1.74.58.42.14h22.06a14.28 14.28 0 011.2-5.85c-3.54-2-10.28-.7-10.4-.63zM314.21 126c-1.43-3.46-5.32-5.16-9.13-6a16.59 16.59 0 014.31 7.85v.1a3.28 3.28 0 00.37.81 2.63 2.63 0 003.65.59 2.59 2.59 0 00.93-2.92zM297.77 145.79a4.59 4.59 0 011.15 2.11l6.75-.7c.22-.71.41-1.68.58-2.54l-8.68 1a1.56 1.56 0 01.2.13zM219.39 127.89c-2 .2-4.3 2.92-4.93 3.86l-7.31 10.51c.32.28.62.59.92.9l10.52-7.23c1-.69 3.69-2.91 3.9-4.93a3.27 3.27 0 00-3.1-3.11zM246.47 140.27c2.39-.53 7.19-2.28 8.77-5.21a5.12 5.12 0 000-4.5 4.78 4.78 0 00-2.88-3.07c-3.2-1-8 1.63-9.59 2.72l-10.73 6a8 8 0 012.07 3 7.83 7.83 0 01.59 4.24zM211.39 147.92c.18.39.35.79.5 1.19l12.5-2.65c1.2-.25 4.52-1.28 5.48-3.06a2.54 2.54 0 00-.05-2.35c-.52-1.24-1.14-1.57-1.62-1.71-1.94-.6-5.09 1-6 1.67zM260.34 155.54a4.75 4.75 0 00-1.5-3.94c-2.57-2.13-8-1.56-9.89-1.16l-12.22 1.46a8 8 0 01.77 3.56v.35h22.83v-.27zM320.83 115a5.22 5.22 0 106.82 2.82 5.22 5.22 0 00-6.82-2.82zM297.13 155.22c0-2.6-.76-4.5-2.35-5.8-4.54-3.75-14.15-1.78-14.25-1.76l-17.11 2a9.91 9.91 0 011.62 5.72v.2a1.11 1.11 0 010 .19h32.06v-.33zM303.05 70a5.21 5.21 0 100 7.37 5.21 5.21 0 000-7.37zM92.64 90.69a2.6 2.6 0 00-2.73 1.4l-.2.43c-1.43 3.46.11 7.41 2.23 10.68a16.41 16.41 0 012.51-8.59v-.09a2.9 2.9 0 00.31-.83 2.62 2.62 0 00-2.12-3zM99.22 87a2.73 2.73 0 00.61-.55l.19-.23a15.41 15.41 0 011.67-2 16.83 16.83 0 015.25-3.54c-3.84-.71-8.08-.64-10.71 2l-.37.4a2.58 2.58 0 00-.21 3 2.61 2.61 0 003.57.92zM122.45 83.93c-1.83 1.84-2.63 3.72-2.43 5.77.56 5.86 8.75 11.26 8.83 11.31l13.54 10.66a9.91 9.91 0 012.9-5.19l.14-.14a10.13 10.13 0 015.8-3L140.78 89.9c-.1-.15-5.64-8.05-11.76-8.68a7.77 7.77 0 00-6.38 2.53zM94.39 70a5.21 5.21 0 100 7.37 5.22 5.22 0 000-7.37zM116 87.85l-5.26-4.29a24.1 24.1 0 00-2.21 1.4l6.82 5.44v-.25a4.69 4.69 0 01.68-2.3zM105.52 112.15a7.81 7.81 0 00-4.92 4.78l-.11.24c-1 2.4-1 4.45 0 6.26 2.76 5.2 12.39 7.06 12.49 7.08l16.59 4.66a10 10 0 01.69-5.9c0-.06.05-.13.08-.19a10.17 10.17 0 014.23-5l-14.82-8.46c-.2-.05-8.34-5.23-14.23-3.47zM293.44 123a4.24 4.24 0 01-.15 2.5l-.13.23 8.73-2.49c-.55-.79-1.17-1.65-1.68-2.24zM58 140a5.22 5.22 0 105.22-5.22A5.23 5.23 0 0058 140zM65.24 124.67a5.22 5.22 0 10-2.83-6.82 5.22 5.22 0 002.83 6.82zM86.33 155.25a39.93 39.93 0 01-10.6-5.63l-.88-.1c-.07 0-6.14-1.1-10.33.56a14.72 14.72 0 011.08 5.73H88zM96 123.25l-6.5-1.94c-.47.58-1 1.4-1.51 2.13l8.39 2.42a2.39 2.39 0 01-.12-.22 4.48 4.48 0 01-.26-2.39zM329.15 155.75v.06h21.62v-.06c0-5.62-4.34-9.39-10.81-9.39s-10.81 3.77-10.81 9.39zM244.3 106l.14.15a10.15 10.15 0 013 5.79l13.48-10.44c.15-.11 8.06-5.65 8.68-11.77a7.8 7.8 0 00-2.6-6.37l-.19-.18c-1.84-1.84-3.72-2.64-5.76-2.44-5.87.56-11.27 8.75-11.32 8.83l-10.66 13.54a10 10 0 015.23 2.89zM262.94 76.74l4.28-5.27c-.35-.65-.9-1.48-1.4-2.21l-5.44 6.82h.25a4.48 4.48 0 012.3.68zM256.26 55.21a2.84 2.84 0 00.84.31 2.6 2.6 0 001.59-4.89l-.43-.19c-3.46-1.44-7.41.11-10.68 2.22a16.48 16.48 0 018.59 2.51zM281.33 84.85c-.81-.52-1.71-1.08-2.41-1.43l-5.5 4.44a4.18 4.18 0 01.82 2.37v.26zM255.9 124a10 10 0 013.68 4.66 1.54 1.54 0 01.08.19 10.1 10.1 0 01.51 6.49l16.46-4.49c.18 0 9.6-2.14 12.52-7.55a7.81 7.81 0 00.11-6.86l-.1-.24c-1-2.41-2.43-3.86-4.4-4.46-5.63-1.72-13.75 3.77-13.83 3.83zM131.7 50.48l-.49.23a2.58 2.58 0 00-1.36 2.7 2.63 2.63 0 003 2.16 2.7 2.7 0 00.77-.28l.27-.14a16.32 16.32 0 012.26-1.15 16.86 16.86 0 016.2-1.26c-3.27-2.13-7.21-3.69-10.65-2.26zM129.77 76.57l-5.64-7.12a27.92 27.92 0 00-1.43 2.41l4.44 5.5a4.23 4.23 0 012.36-.82zM146.51 64.64a4.54 4.54 0 011.5-1.86l-3.22-6a25.2 25.2 0 00-2.57.44l4.21 7.64c.03-.05.05-.14.08-.22zM186.94 70.25l2 17.11a10 10 0 015.73-1.62h.2a10.21 10.21 0 016.19 2l2.15-16.92c0-.18 1.7-9.69-2.18-14.46a7.84 7.84 0 00-6.3-2.72h-.26c-2.6 0-4.5.77-5.8 2.35-3.67 4.56-1.75 14.16-1.73 14.26zM194.37 47.06l.58 1.75.58-1.75a39.62 39.62 0 015.63-10.6l.1-.88c0-.07 1.1-6.15-.55-10.34a14.93 14.93 0 01-11.48-.12c-1.94 3.54-.7 10.28-.63 10.41l.1.87a39.69 39.69 0 015.67 10.66zM241.48 63a4.33 4.33 0 011.66 1.87c0 .09.05.17.07.26l4.41-7.94a27 27 0 00-2.77-.39zM232 153.28c-1.57-1.29-5.1-1-6.22-.77l-12.6 2.27v1h19.61v-.33a2.52 2.52 0 00-.79-2.17zM162.57 61.63a7.78 7.78 0 00-6.86-.1l-.25.09c-2.4 1-3.86 2.43-4.46 4.4-1.72 5.63 3.78 13.75 3.84 13.84l8.42 15a9.94 9.94 0 014.67-3.68l.19-.08a10.2 10.2 0 016.48-.51l-4.49-16.46c-.04-.13-2.11-9.58-7.54-12.5zM175.89 39.4a3 3 0 00.82 0h.3a15.82 15.82 0 012.57-.21 16.63 16.63 0 016.21 1.22c-2.22-3.22-5.26-6.17-9-6.17h-.55a2.58 2.58 0 00-2.28 2 2.61 2.61 0 001.93 3.16zM164.8 57.49l.24.13-2.49-8.73c-.79.55-1.65 1.17-2.24 1.68l2 6.78a4.21 4.21 0 012.49.14zM159.29 45.7a16.49 16.49 0 017.85-4.3h.1a2.87 2.87 0 00.76-.4 2.6 2.6 0 00-2.33-4.58l-.44.16c-3.42 1.42-5.12 5.31-5.94 9.12zM179.3 29.16a5.22 5.22 0 10-5.22-5.22 5.22 5.22 0 005.22 5.22zM221.88 40.93a2.61 2.61 0 00.73.35l.3.09a15.65 15.65 0 012.44.79 16.89 16.89 0 015.28 3.5c-.82-3.82-2.5-7.71-5.94-9.13l-.51-.19a2.58 2.58 0 00-2.87 1 2.61 2.61 0 00.57 3.59zM161.12 32.77A5.22 5.22 0 10154.3 30a5.21 5.21 0 006.82 2.77zM225.14 57a4.71 4.71 0 012.39-.26l1.94-6.5a24.54 24.54 0 00-2.13-1.5l-2.42 8.38zM210.76 29.16a5.22 5.22 0 10-5.21-5.22 5.22 5.22 0 005.21 5.22zM195 21.63c5.79 0 9.53-4 9.53-10.3C204.56 5.84 201.22 0 195 0c-5.62 0-9.4 4.35-9.4 10.81s3.81 10.82 9.4 10.82zM213.62 34.28h-.47c-3.75 0-6.81 2.94-9 6.15a16.51 16.51 0 018.9-1h.1a3 3 0 00.88 0 2.61 2.61 0 001.97-3.17 2.56 2.56 0 00-2.38-1.98zM221.51 90.94l.19.08a10.18 10.18 0 015 4.23l8.46-14.82c.1-.15 5.28-8.3 3.52-14.19a7.81 7.81 0 00-4.78-4.92l-.24-.1a7 7 0 00-6.26 0c-5.2 2.77-7.06 12.4-7.07 12.49l-4.67 16.59a10 10 0 015.85.64zM81.5 115.68l.84.25a39.72 39.72 0 0112-1.16l1.83.13-1.39-1.21a39.44 39.44 0 01-7.64-9.26l-.77-.42c-.06 0-5.26-3.38-9.77-3.45a14.88 14.88 0 01-4.5 10.56c2.55 3.15 9.25 4.58 9.4 4.56zM77.28 95.59a5.21 5.21 0 10-2.83-6.81 5.2 5.2 0 002.83 6.81zM293.53 102.94l-7.64 4.22.25.07a4.49 4.49 0 011.86 1.51l6-3.23c-.1-.74-.29-1.71-.47-2.57zM60.9 155.81v-.06c0-5.78-4-9.52-10.31-9.52-5.49 0-11.32 3.33-11.32 9.52v.06zM100.19 60.91c4.09-4.09 3.88-9.59-.55-14-3.88-3.91-10.37-5.67-14.74-1.29-4 4-3.58 9.72 1 14.29s10.32 4.98 14.29 1zM57.53 109c6 2.47 11.44.65 13.59-4.55S71 94.08 65.24 91.68c-5.07-2.1-11.74-1.25-14.11 4.47-2.13 5.19.42 10.34 6.4 12.85zM143.7 31.84c5.35-2.22 7.26-7.38 4.86-13.16-2.1-5.08-7.42-9.19-13.13-6.82-5.2 2.15-7 7.61-4.55 13.58s7.63 8.56 12.82 6.4zM105.47 75.28l.69.56a40.1 40.1 0 0111.55 3.52l1.64.83-.83-1.65A39.71 39.71 0 01115 67.06l-.55-.69c0-.06-3.57-5.13-7.7-6.92a14.91 14.91 0 01-8.2 8c1.14 3.91 6.79 7.8 6.92 7.83zM132.05 44.82a5.22 5.22 0 10-6.82-2.82 5.22 5.22 0 006.82 2.82zM125.5 60.77l.08-.07a3.09 3.09 0 00.6-.65 2.6 2.6 0 00-3.91-3.34l-.34.32c-2.65 2.65-2.74 6.89-2 10.72a16.47 16.47 0 015.57-6.98zM116.64 55.11a5.22 5.22 0 10-7.38 0 5.23 5.23 0 007.38 0zM143.09 47.14l.42.77a40.09 40.09 0 019.32 7.67L154 57l-.13-1.84a39.48 39.48 0 011.14-12l-.24-.85c0-.07-1.34-6.1-4.47-9.34a14.89 14.89 0 01-10.65 4.28c-.41 4.05 3.35 9.8 3.44 9.89zM174.33 95.54a5.13 5.13 0 00-4.49 0 4.72 4.72 0 00-3.07 2.89c-1 3.19 1.63 8 2.72 9.58l6 10.74a8 8 0 013-2.08 7.81 7.81 0 014.24-.59l-3.2-11.73c-.53-2.43-2.27-7.23-5.2-8.81zM152.87 108.05a5.11 5.11 0 00-4.17 1.67 4.73 4.73 0 00-1.73 3.84c.32 3.32 4.57 6.77 6.18 7.81l9.67 7.61a8.54 8.54 0 015.67-5.23l-7.49-9.6c-1.37-2.01-4.82-5.76-8.13-6.1zM182.67 120.91a2.51 2.51 0 00-2.35.06 2.54 2.54 0 00-1.71 1.61c-.59 2 1 5.09 1.67 6l6.92 10.77c.39-.18.78-.35 1.19-.5l-2.66-12.49c-.25-1.17-1.28-4.49-3.06-5.45zM104.18 107.65l.25-.08-7.93-4.41c-.17.94-.34 2-.4 2.77l6.21 3.37a4.19 4.19 0 011.87-1.65zM75.81 126.09l-.19.51a2.57 2.57 0 001 2.87 2.62 2.62 0 003.64-.59 3 3 0 00.35-.74l.09-.29a15.42 15.42 0 01.79-2.45 16.72 16.72 0 013.5-5.28c-3.87.88-7.76 2.53-9.18 5.97zM84.57 147.58l7 .74a4.28 4.28 0 011.09-2.25l.21-.16-9-1a26.49 26.49 0 00.7 2.67zM229.4 113.87l-7.61 9.67a8 8 0 013.06 2 7.86 7.86 0 012.17 3.69l9.61-7.45c2-1.4 5.77-4.86 6.11-8.17a5.12 5.12 0 00-1.68-4.17 4.78 4.78 0 00-3.85-1.73c-3.32.29-6.76 4.55-7.81 6.16zM219.82 95.33a4.74 4.74 0 00-4.21-.12c-3 1.56-4.5 6.81-4.85 8.69l-3.34 11.85a8.16 8.16 0 013.59.65 7.85 7.85 0 013.42 2.59l6-10.56c1.31-2.07 3.46-6.7 2.51-9.89a5.14 5.14 0 00-3.12-3.21zM183.93 44.54l1 8.67a1.56 1.56 0 01.16-.2 4.6 4.6 0 012.1-1.15l-.69-6.75c-.73-.21-1.71-.41-2.57-.57zM203.79 126.14l-2.73 12.5c.41.15.81.31 1.2.49l7-10.71c.68-1 2.3-4.1 1.72-6a3.28 3.28 0 00-4.05-1.69c-1.85.91-2.93 4.27-3.14 5.41zM202.46 52.31a4.29 4.29 0 012.25 1.1l.16.2 1-9c-.94.21-2 .45-2.71.7zM234.85 43.06a40.27 40.27 0 011.17 12l-.14 1.84 1.21-1.4a39.93 39.93 0 019.26-7.64l.43-.77c0-.06 3.37-5.26 3.44-9.76a14.92 14.92 0 01-10.55-4.5c-3.16 2.52-4.59 9.23-4.57 9.37zM255.19 38a5.22 5.22 0 106.81-2.82 5.22 5.22 0 00-6.81 2.82zM263.77 60a3.26 3.26 0 00.55.6l.24.2a15.12 15.12 0 011.95 1.66 16.83 16.83 0 013.54 5.25c.71-3.84.64-8.07-2-10.71l-.41-.37a2.57 2.57 0 00-3-.22 2.61 2.61 0 00-.87 3.59zM246.36 31.84c5.34 2.21 10.34-.09 12.74-5.87 2.1-5.08 1.25-11.75-4.46-14.11-5.2-2.15-10.35.41-12.83 6.39s-.65 11.44 4.55 13.59zM228.94 32.78a5.22 5.22 0 10-2.82-6.78 5.22 5.22 0 002.82 6.78zM283.72 75.74l.69-.56c.06 0 5.13-3.57 6.92-7.7a14.91 14.91 0 01-8-8.2c-3.88 1.13-7.76 6.78-7.8 6.92l-.55.68a39.83 39.83 0 01-3.53 11.55l-.82 1.64 1.64-.82a39.62 39.62 0 0111.45-3.51zM73.55 137.17v.47c0 3.75 2.94 6.8 6.15 9a16.53 16.53 0 01-1-8.9v-.11a2.65 2.65 0 000-.88 2.6 2.6 0 00-5.12.4zM303.65 103.81l-.78.42a40.09 40.09 0 01-7.67 9.32l-1.39 1.2 1.83-.13a39.26 39.26 0 0111.95 1.15l.85-.25c.07 0 6.1-1.33 9.34-4.47a14.93 14.93 0 01-4.28-10.64c-4.02-.41-9.77 3.28-9.85 3.4zM280.8 55.11a5.22 5.22 0 10-7.38 0 5.22 5.22 0 007.38 0zM332.11 109.28c5.07-2.1 9.18-7.41 6.82-13.13-2.15-5.19-7.61-7-13.59-4.54s-8.55 7.62-6.4 12.82 7.38 7.25 13.17 4.85zM303.89 60.36c3.88-3.88 5.65-10.37 1.27-14.74-4-4-9.71-3.57-14.29 1s-5 10.32-1 14.29 9.59 3.88 14.02-.55zM306 92.77a5.22 5.22 0 102.79-6.77 5.2 5.2 0 00-2.79 6.77z"/>
</svg>
